<svg xmlns="http://www.w3.org/2000/svg" xmlns:xlink="http://www.w3.org/1999/xlink" version="1.1" x="0px" y="0px" viewBox="0 0 100 125" style="enable-background:new 0 0 100 100;" xml:space="preserve"><g><path d="M75,70h-3.5V44.5c0-11-8.3-20.1-19-21.3v-2.8c0-1.4-1.1-2.5-2.5-2.5s-2.5,1.1-2.5,2.5v2.8c-10.7,1.2-19,10.3-19,21.3V70H25   c-1.4,0-2.5,1.1-2.5,2.5S23.6,75,25,75h6h9.5c0,0.2,0,0.3,0,0.5c0,5.2,4.3,9.5,9.5,9.5s9.5-4.3,9.5-9.5c0-0.2,0-0.3,0-0.5H69h6   c1.4,0,2.5-1.1,2.5-2.5S76.4,70,75,70z M54.5,75.5c0,2.5-2,4.5-4.5,4.5s-4.5-2-4.5-4.5c0-0.2,0-0.3,0.1-0.5h8.9   C54.5,75.2,54.5,75.3,54.5,75.5z M33.5,70V44.5C33.5,35.4,40.9,28,50,28s16.5,7.4,16.5,16.5V70H33.5z"/><path d="M24.6,43.4c0,0,0-0.1,0-0.1c0,0,0,0,0,0c0-6.5,2.5-12.7,7-17.4c1-1,0.9-2.6-0.1-3.5c-1-0.9-2.6-0.9-3.5,0.1   c-5.3,5.6-8.3,13-8.3,20.7c0,0,0,0,0,0c0,0,0,0.1,0,0.2c0,1.4,1.1,2.5,2.5,2.5S24.6,44.8,24.6,43.4z"/><path d="M80.4,43.3C80.4,43.3,80.4,43.3,80.4,43.3c0-7.8-3-15.2-8.3-20.8c-0.9-1-2.5-1-3.5-0.1c-1,1-1,2.5-0.1,3.5   c4.5,4.7,6.9,10.9,7,17.4c0,0,0,0,0,0c0,0,0,0.1,0,0.1c0,1.4,1.1,2.5,2.5,2.5c1.4,0,2.5-1.1,2.5-2.5C80.4,43.4,80.4,43.3,80.4,43.3   C80.4,43.3,80.4,43.3,80.4,43.3z"/><path d="M25.2,16.1c-1-1-2.6-0.9-3.5,0.1c-7,7.4-10.9,17-10.9,27.1c0,1.4,1.1,2.5,2.5,2.5s2.5-1.1,2.5-2.5c0-8.9,3.4-17.3,9.5-23.7   C26.2,18.6,26.1,17,25.2,16.1z"/><path d="M74.8,16.1c-1,1-1,2.5-0.1,3.5c6.1,6.4,9.5,14.8,9.5,23.7c0,1.4,1.1,2.5,2.5,2.5s2.5-1.1,2.5-2.5   c0-10.2-3.9-19.8-10.9-27.1C77.4,15.1,75.8,15.1,74.8,16.1z"/></g><text x="0" y="115" fill="#000000" font-size="5px" font-weight="bold" font-family="'Helvetica Neue', Helvetica, Arial-Unicode, Arial, Sans-serif">Created by praveen patchu</text><text x="0" y="120" fill="#000000" font-size="5px" font-weight="bold" font-family="'Helvetica Neue', Helvetica, Arial-Unicode, Arial, Sans-serif">from the Noun Project</text></svg>